<?xml version="1.0" standalone="no"?>
<!DOCTYPE svg PUBLIC "-//W3C//DTD SVG 1.1//EN"
  "http://www.w3.org/Graphics/SVG/1.1/DTD/svg11.dtd">
<svg xmlns="http://www.w3.org/2000/svg" version="1.1"
     width="799px" height="497px" viewBox="-15 -262 799 507">
  <defs>
    <style type="text/css"><![CDATA[
      .markmap-node {
        cursor: pointer;
      }

      .markmap-node-circle {
        fill: #fff;
        stroke-width: 1.5px;
      }

      .markmap-node-text {
        fill:  #000;
        font: 10px sans-serif;
      }

      .markmap-link {
        fill: none;
      }
    ]]></style>
  </defs>
  <g><path class="markmap-link" stroke="#98df8a" stroke-width="1.5" d="M482.8896484375,207.5C512.8896484375,207.5 512.8896484375,185 542.8896484375,185"></path><path class="markmap-link" stroke="#98df8a" stroke-width="1.5" d="M482.8896484375,207.5C512.8896484375,207.5 512.8896484375,200 542.8896484375,200"></path><path class="markmap-link" stroke="#98df8a" stroke-width="1.5" d="M482.8896484375,207.5C512.8896484375,207.5 512.8896484375,215 542.8896484375,215"></path><path class="markmap-link" stroke="#98df8a" stroke-width="1.5" d="M482.8896484375,207.5C512.8896484375,207.5 512.8896484375,230 542.8896484375,230"></path><path class="markmap-link" stroke="#98df8a" stroke-width="1.5" d="M300.81640625,207.5C330.81640625,207.5 330.81640625,207.5 360.81640625,207.5"></path><path class="markmap-link" stroke="#2ca02c" stroke-width="1.5" d="M314.810546875,135C344.810546875,135 344.810546875,82.5 374.810546875,82.5"></path><path class="markmap-link" stroke="#2ca02c" stroke-width="1.5" d="M314.810546875,135C344.810546875,135 344.810546875,97.5 374.810546875,97.5"></path><path class="markmap-link" stroke="#2ca02c" stroke-width="1.5" d="M314.810546875,135C344.810546875,135 344.810546875,112.5 374.810546875,112.5"></path><path class="markmap-link" stroke="#2ca02c" stroke-width="1.5" d="M314.810546875,135C344.810546875,135 344.810546875,127.5 374.810546875,127.5"></path><path class="markmap-link" stroke="#2ca02c" stroke-width="1.5" d="M314.810546875,135C344.810546875,135 344.810546875,142.5 374.810546875,142.5"></path><path class="markmap-link" stroke="#2ca02c" stroke-width="1.5" d="M314.810546875,135C344.810546875,135 344.810546875,157.5 374.810546875,157.5"></path><path class="markmap-link" stroke="#2ca02c" stroke-width="1.5" d="M314.810546875,135C344.810546875,135 344.810546875,172.5 374.810546875,172.5"></path><path class="markmap-link" stroke="#2ca02c" stroke-width="1.5" d="M314.810546875,135C344.810546875,135 344.810546875,187.5 374.810546875,187.5"></path><path class="markmap-link" stroke="#ffbb78" stroke-width="1.5" d="M398.333984375,17.5C428.333984375,17.5 428.333984375,-27.5 458.333984375,-27.5"></path><path class="markmap-link" stroke="#ffbb78" stroke-width="1.5" d="M398.333984375,17.5C428.333984375,17.5 428.333984375,-12.5 458.333984375,-12.5"></path><path class="markmap-link" stroke="#ffbb78" stroke-width="1.5" d="M398.333984375,17.5C428.333984375,17.5 428.333984375,2.5 458.333984375,2.5"></path><path class="markmap-link" stroke="#ffbb78" stroke-width="1.5" d="M398.333984375,17.5C428.333984375,17.5 428.333984375,17.5 458.333984375,17.5"></path><path class="markmap-link" stroke="#ffbb78" stroke-width="1.5" d="M398.333984375,17.5C428.333984375,17.5 428.333984375,32.5 458.333984375,32.5"></path><path class="markmap-link" stroke="#ffbb78" stroke-width="1.5" d="M398.333984375,17.5C428.333984375,17.5 428.333984375,47.5 458.333984375,47.5"></path><path class="markmap-link" stroke="#ffbb78" stroke-width="1.5" d="M398.333984375,17.5C428.333984375,17.5 428.333984375,62.5 458.333984375,62.5"></path><path class="markmap-link" stroke="#ffbb78" stroke-width="1.5" d="M224.6201171875,17.5C254.6201171875,17.5 254.6201171875,17.5 284.6201171875,17.5"></path><path class="markmap-link" stroke="#aec7e8" stroke-width="1.5" d="M280.7314453125,-70C310.7314453125,-70 310.7314453125,-92.5 340.7314453125,-92.5"></path><path class="markmap-link" stroke="#aec7e8" stroke-width="1.5" d="M280.7314453125,-70C310.7314453125,-70 310.7314453125,-77.5 340.7314453125,-77.5"></path><path class="markmap-link" stroke="#aec7e8" stroke-width="1.5" d="M280.7314453125,-70C310.7314453125,-70 310.7314453125,-62.5 340.7314453125,-62.5"></path><path class="markmap-link" stroke="#aec7e8" stroke-width="1.5" d="M280.7314453125,-70C310.7314453125,-70 310.7314453125,-47.5 340.7314453125,-47.5"></path><path class="markmap-link" stroke="#aec7e8" stroke-width="1.5" d="M293.03125,-135C323.03125,-135 323.03125,-157.5 353.03125,-157.5"></path><path class="markmap-link" stroke="#aec7e8" stroke-width="1.5" d="M293.03125,-135C323.03125,-135 323.03125,-142.5 353.03125,-142.5"></path><path class="markmap-link" stroke="#aec7e8" stroke-width="1.5" d="M293.03125,-135C323.03125,-135 323.03125,-127.5 353.03125,-127.5"></path><path class="markmap-link" stroke="#aec7e8" stroke-width="1.5" d="M293.03125,-135C323.03125,-135 323.03125,-112.5 353.03125,-112.5"></path><path class="markmap-link" stroke="#aec7e8" stroke-width="1.5" d="M156.9541015625,-95C186.9541015625,-95 186.9541015625,-135 216.9541015625,-135"></path><path class="markmap-link" stroke="#aec7e8" stroke-width="1.5" d="M156.9541015625,-95C186.9541015625,-95 186.9541015625,-70 216.9541015625,-70"></path><path class="markmap-link" stroke="#aec7e8" stroke-width="1.5" d="M156.9541015625,-95C186.9541015625,-95 186.9541015625,-55 216.9541015625,-55"></path><path class="markmap-link" stroke="#ff7f0e" stroke-width="1.5" d="M255.9091796875,-207.5C285.9091796875,-207.5 285.9091796875,-237.5 315.9091796875,-237.5"></path><path class="markmap-link" stroke="#ff7f0e" stroke-width="1.5" d="M255.9091796875,-207.5C285.9091796875,-207.5 285.9091796875,-222.5 315.9091796875,-222.5"></path><path class="markmap-link" stroke="#ff7f0e" stroke-width="1.5" d="M255.9091796875,-207.5C285.9091796875,-207.5 285.9091796875,-207.5 315.9091796875,-207.5"></path><path class="markmap-link" stroke="#ff7f0e" stroke-width="1.5" d="M255.9091796875,-207.5C285.9091796875,-207.5 285.9091796875,-192.5 315.9091796875,-192.5"></path><path class="markmap-link" stroke="#ff7f0e" stroke-width="1.5" d="M255.9091796875,-207.5C285.9091796875,-207.5 285.9091796875,-177.5 315.9091796875,-177.5"></path><path class="markmap-link" stroke="#ff7f0e" stroke-width="2" d="M48.26953125,0C78.26953125,0 78.26953125,-207.5 108.26953125,-207.5"></path><path class="markmap-link" stroke="#aec7e8" stroke-width="2" d="M48.26953125,0C78.26953125,0 78.26953125,-95 108.26953125,-95"></path><path class="markmap-link" stroke="#ffbb78" stroke-width="2" d="M48.26953125,0C78.26953125,0 78.26953125,17.5 108.26953125,17.5"></path><path class="markmap-link" stroke="#2ca02c" stroke-width="2" d="M48.26953125,0C78.26953125,0 78.26953125,135 108.26953125,135"></path><path class="markmap-link" stroke="#98df8a" stroke-width="2" d="M48.26953125,0C78.26953125,0 78.26953125,207.5 108.26953125,207.5"></path><g class="markmap-node" transform="translate(542.8896484375,230)"><rect class="markmap-node-rect" y="-0.75" x="-1" width="228.1943359375" height="1.5" fill="#98df8a"></rect><circle class="markmap-node-circle" cx="226.1943359375" stroke="#98df8a" r="4.5" style="display: none;"></circle><text class="markmap-node-text" x="10" dy="-5" text-anchor="start" style="fill-opacity: 1;">Демонстрации или Внедрения (Опционально)</text></g><g class="markmap-node" transform="translate(542.8896484375,215)"><rect class="markmap-node-rect" y="-0.75" x="-1" width="78.6826171875" height="1.5" fill="#98df8a"></rect><circle class="markmap-node-circle" cx="76.6826171875" stroke="#98df8a" r="4.5" style="display: none;"></circle><text class="markmap-node-text" x="10" dy="-5" text-anchor="start" style="fill-opacity: 1;">Тестирования</text></g><g class="markmap-node" transform="translate(542.8896484375,200)"><rect class="markmap-node-rect" y="-0.75" x="-1" width="67.10546875" height="1.5" fill="#98df8a"></rect><circle class="markmap-node-circle" cx="65.10546875" stroke="#98df8a" r="4.5" style="display: none;"></circle><text class="markmap-node-text" x="10" dy="-5" text-anchor="start" style="fill-opacity: 1;">Разработки</text></g><g class="markmap-node" transform="translate(542.8896484375,185)"><rect class="markmap-node-rect" y="-0.75" x="-1" width="82.1005859375" height="1.5" fill="#98df8a"></rect><circle class="markmap-node-circle" cx="80.1005859375" stroke="#98df8a" r="4.5" style="display: none;"></circle><text class="markmap-node-text" x="10" dy="-5" text-anchor="start" style="fill-opacity: 1;">Планирования</text></g><g class="markmap-node" transform="translate(360.81640625,207.5)"><rect class="markmap-node-rect" y="-0.75" x="-1" width="124.0732421875" height="1.5" fill="#98df8a"></rect><circle class="markmap-node-circle" cx="122.0732421875" stroke="#98df8a" r="4.5"></circle><text class="markmap-node-text" x="10" dy="-5" text-anchor="start" style="fill-opacity: 1;">Спринты состоящие из:</text></g><g class="markmap-node" transform="translate(108.26953125,207.5)"><rect class="markmap-node-rect" y="-1" x="-1" width="194.546875" height="2" fill="#98df8a"></rect><circle class="markmap-node-circle" cx="192.546875" stroke="#98df8a" r="4.5"></circle><text class="markmap-node-text" x="10" dy="-5" text-anchor="start" style="fill-opacity: 1;">Agile (Гибкая методология разработки)</text></g><g class="markmap-node" transform="translate(374.810546875,187.5)"><rect class="markmap-node-rect" y="-0.75" x="-1" width="65.162109375" height="1.5" fill="#2ca02c"></rect><circle class="markmap-node-circle" cx="63.162109375" stroke="#2ca02c" r="4.5" style="display: none;"></circle><text class="markmap-node-text" x="10" dy="-5" text-anchor="start" style="fill-opacity: 1;">Внедрение</text></g><g class="markmap-node" transform="translate(374.810546875,172.5)"><rect class="markmap-node-rect" y="-0.75" x="-1" width="78.8291015625" height="1.5" fill="#2ca02c"></rect><circle class="markmap-node-circle" cx="76.8291015625" stroke="#2ca02c" r="4.5" style="display: none;"></circle><text class="markmap-node-text" x="10" dy="-5" text-anchor="start" style="fill-opacity: 1;">Тестирование</text></g><g class="markmap-node" transform="translate(374.810546875,157.5)"><rect class="markmap-node-rect" y="-0.75" x="-1" width="97.583984375" height="1.5" fill="#2ca02c"></rect><circle class="markmap-node-circle" cx="95.583984375" stroke="#2ca02c" r="4.5" style="display: none;"></circle><text class="markmap-node-text" x="10" dy="-5" text-anchor="start" style="fill-opacity: 1;">Сбор приложения</text></g><g class="markmap-node" transform="translate(374.810546875,142.5)"><rect class="markmap-node-rect" y="-0.75" x="-1" width="134.87890625" height="1.5" fill="#2ca02c"></rect><circle class="markmap-node-circle" cx="132.87890625" stroke="#2ca02c" r="4.5" style="display: none;"></circle><text class="markmap-node-text" x="10" dy="-5" text-anchor="start" style="fill-opacity: 1;">Моделирование процесса</text></g><g class="markmap-node" transform="translate(374.810546875,127.5)"><rect class="markmap-node-rect" y="-0.75" x="-1" width="126.2314453125" height="1.5" fill="#2ca02c"></rect><circle class="markmap-node-circle" cx="124.2314453125" stroke="#2ca02c" r="4.5" style="display: none;"></circle><text class="markmap-node-text" x="10" dy="-5" text-anchor="start" style="fill-opacity: 1;">Моделирование данных</text></g><g class="markmap-node" transform="translate(374.810546875,112.5)"><rect class="markmap-node-rect" y="-0.75" x="-1" width="123.404296875" height="1.5" fill="#2ca02c"></rect><circle class="markmap-node-circle" cx="121.404296875" stroke="#2ca02c" r="4.5" style="display: none;"></circle><text class="markmap-node-text" x="10" dy="-5" text-anchor="start" style="fill-opacity: 1;">Бизнес-моделирование</text></g><g class="markmap-node" transform="translate(374.810546875,97.5)"><rect class="markmap-node-rect" y="-0.75" x="-1" width="176.16796875" height="1.5" fill="#2ca02c"></rect><circle class="markmap-node-circle" cx="174.16796875" stroke="#2ca02c" r="4.5" style="display: none;"></circle><text class="markmap-node-text" x="10" dy="-5" text-anchor="start" style="fill-opacity: 1;">Анализ и быстрое проектирование</text></g><g class="markmap-node" transform="translate(374.810546875,82.5)"><rect class="markmap-node-rect" y="-0.75" x="-1" width="126.9541015625" height="1.5" fill="#2ca02c"></rect><circle class="markmap-node-circle" cx="124.9541015625" stroke="#2ca02c" r="4.5" style="display: none;"></circle><text class="markmap-node-text" x="10" dy="-5" text-anchor="start" style="fill-opacity: 1;">Разделение на команды</text></g><g class="markmap-node" transform="translate(108.26953125,135)"><rect class="markmap-node-rect" y="-1" x="-1" width="208.541015625" height="2" fill="#2ca02c"></rect><circle class="markmap-node-circle" cx="206.541015625" stroke="#2ca02c" r="4.5"></circle><text class="markmap-node-text" x="10" dy="-5" text-anchor="start" style="fill-opacity: 1;">RAD Model (repid application develpment…</text></g><g class="markmap-node" transform="translate(458.333984375,62.5)"><rect class="markmap-node-rect" y="-0.75" x="-1" width="54.1123046875" height="1.5" fill="#ffbb78"></rect><circle class="markmap-node-circle" cx="52.1123046875" stroke="#ffbb78" r="4.5" style="display: none;"></circle><text class="markmap-node-text" x="10" dy="-5" text-anchor="start" style="fill-opacity: 1;">Оценкой</text></g><g class="markmap-node" transform="translate(458.333984375,47.5)"><rect class="markmap-node-rect" y="-0.75" x="-1" width="85.7041015625" height="1.5" fill="#ffbb78"></rect><circle class="markmap-node-circle" cx="83.7041015625" stroke="#ffbb78" r="4.5" style="display: none;"></circle><text class="markmap-node-text" x="10" dy="-5" text-anchor="start" style="fill-opacity: 1;">Тестированием</text></g><g class="markmap-node" transform="translate(458.333984375,32.5)"><rect class="markmap-node-rect" y="-0.75" x="-1" width="92.5498046875" height="1.5" fill="#ffbb78"></rect><circle class="markmap-node-circle" cx="90.5498046875" stroke="#ffbb78" r="4.5" style="display: none;"></circle><text class="markmap-node-text" x="10" dy="-5" text-anchor="start" style="fill-opacity: 1;">Развертыванием</text></g><g class="markmap-node" transform="translate(458.333984375,17.5)"><rect class="markmap-node-rect" y="-0.75" x="-1" width="77.408203125" height="1.5" fill="#ffbb78"></rect><circle class="markmap-node-circle" cx="75.408203125" stroke="#ffbb78" r="4.5" style="display: none;"></circle><text class="markmap-node-text" x="10" dy="-5" text-anchor="start" style="fill-opacity: 1;">Исполнением</text></g><g class="markmap-node" transform="translate(458.333984375,2.5)"><rect class="markmap-node-rect" y="-0.75" x="-1" width="97.955078125" height="1.5" fill="#ffbb78"></rect><circle class="markmap-node-circle" cx="95.955078125" stroke="#ffbb78" r="4.5" style="display: none;"></circle><text class="markmap-node-text" x="10" dy="-5" text-anchor="start" style="fill-opacity: 1;">Проектированием</text></g><g class="markmap-node" transform="translate(458.333984375,-12.5)"><rect class="markmap-node-rect" y="-0.75" x="-1" width="121.919921875" height="1.5" fill="#ffbb78"></rect><circle class="markmap-node-circle" cx="119.919921875" stroke="#ffbb78" r="4.5" style="display: none;"></circle><text class="markmap-node-text" x="10" dy="-5" text-anchor="start" style="fill-opacity: 1;">Изучением требования</text></g><g class="markmap-node" transform="translate(458.333984375,-27.5)"><rect class="markmap-node-rect" y="-0.75" x="-1" width="89.1220703125" height="1.5" fill="#ffbb78"></rect><circle class="markmap-node-circle" cx="87.1220703125" stroke="#ffbb78" r="4.5" style="display: none;"></circle><text class="markmap-node-text" x="10" dy="-5" text-anchor="start" style="fill-opacity: 1;">Планированием</text></g><g class="markmap-node" transform="translate(284.6201171875,17.5)"><rect class="markmap-node-rect" y="-0.75" x="-1" width="115.7138671875" height="1.5" fill="#ffbb78"></rect><circle class="markmap-node-circle" cx="113.7138671875" stroke="#ffbb78" r="4.5"></circle><text class="markmap-node-text" x="10" dy="-5" text-anchor="start" style="fill-opacity: 1;">Циклы разработки с...</text></g><g class="markmap-node" transform="translate(108.26953125,17.5)"><rect class="markmap-node-rect" y="-1" x="-1" width="118.3505859375" height="2" fill="#ffbb78"></rect><circle class="markmap-node-circle" cx="116.3505859375" stroke="#ffbb78" r="4.5"></circle><text class="markmap-node-text" x="10" dy="-5" text-anchor="start" style="fill-opacity: 1;">Инкрементная модель</text></g><g class="markmap-node" transform="translate(216.9541015625,-55)"><rect class="markmap-node-rect" y="-0.75" x="-1" width="31.001953125" height="1.5" fill="#aec7e8"></rect><circle class="markmap-node-circle" cx="29.001953125" stroke="#aec7e8" r="4.5" style="display: none;"></circle><text class="markmap-node-text" x="10" dy="-5" text-anchor="start" style="fill-opacity: 1;">Код</text></g><g class="markmap-node" transform="translate(340.7314453125,-47.5)"><rect class="markmap-node-rect" y="-0.75" x="-1" width="132.6181640625" height="1.5" fill="#aec7e8"></rect><circle class="markmap-node-circle" cx="130.6181640625" stroke="#aec7e8" r="4.5" style="display: none;"></circle><text class="markmap-node-text" x="10" dy="-5" text-anchor="start" style="fill-opacity: 1;">Модульное тестирование</text></g><g class="markmap-node" transform="translate(340.7314453125,-62.5)"><rect class="markmap-node-rect" y="-0.75" x="-1" width="157.0810546875" height="1.5" fill="#aec7e8"></rect><circle class="markmap-node-circle" cx="155.0810546875" stroke="#aec7e8" r="4.5" style="display: none;"></circle><text class="markmap-node-text" x="10" dy="-5" text-anchor="start" style="fill-opacity: 1;">Интеграционное тестирование</text></g><g class="markmap-node" transform="translate(340.7314453125,-77.5)"><rect class="markmap-node-rect" y="-0.75" x="-1" width="158.677734375" height="1.5" fill="#aec7e8"></rect><circle class="markmap-node-circle" cx="156.677734375" stroke="#aec7e8" r="4.5" style="display: none;"></circle><text class="markmap-node-text" x="10" dy="-5" text-anchor="start" style="fill-opacity: 1;">Функциональное тестирование</text></g><g class="markmap-node" transform="translate(340.7314453125,-92.5)"><rect class="markmap-node-rect" y="-0.75" x="-1" width="167.88671875" height="1.5" fill="#aec7e8"></rect><circle class="markmap-node-circle" cx="165.88671875" stroke="#aec7e8" r="4.5" style="display: none;"></circle><text class="markmap-node-text" x="10" dy="-5" text-anchor="start" style="fill-opacity: 1;">Приемо-сдаточное тестирования</text></g><g class="markmap-node" transform="translate(216.9541015625,-70)"><rect class="markmap-node-rect" y="-0.75" x="-1" width="65.77734375" height="1.5" fill="#aec7e8"></rect><circle class="markmap-node-circle" cx="63.77734375" stroke="#aec7e8" r="4.5"></circle><text class="markmap-node-text" x="10" dy="-5" text-anchor="start" style="fill-opacity: 1;">Валидация</text></g><g class="markmap-node" transform="translate(353.03125,-112.5)"><rect class="markmap-node-rect" y="-0.75" x="-1" width="69.6494140625" height="1.5" fill="#aec7e8"></rect><circle class="markmap-node-circle" cx="67.6494140625" stroke="#aec7e8" r="4.5" style="display: none;"></circle><text class="markmap-node-text" x="10" dy="-5" text-anchor="start" style="fill-opacity: 1;">Реализация</text></g><g class="markmap-node" transform="translate(353.03125,-127.5)"><rect class="markmap-node-rect" y="-0.75" x="-1" width="114.380859375" height="1.5" fill="#aec7e8"></rect><circle class="markmap-node-circle" cx="112.380859375" stroke="#aec7e8" r="4.5" style="display: none;"></circle><text class="markmap-node-text" x="10" dy="-5" text-anchor="start" style="fill-opacity: 1;">Архитектура системы</text></g><g class="markmap-node" transform="translate(353.03125,-142.5)"><rect class="markmap-node-rect" y="-0.75" x="-1" width="150.71875" height="1.5" fill="#aec7e8"></rect><circle class="markmap-node-circle" cx="148.71875" stroke="#aec7e8" r="4.5" style="display: none;"></circle><text class="markmap-node-text" x="10" dy="-5" text-anchor="start" style="fill-opacity: 1;">Функциональные требования</text></g><g class="markmap-node" transform="translate(353.03125,-157.5)"><rect class="markmap-node-rect" y="-0.75" x="-1" width="104.3125" height="1.5" fill="#aec7e8"></rect><circle class="markmap-node-circle" cx="102.3125" stroke="#aec7e8" r="4.5" style="display: none;"></circle><text class="markmap-node-text" x="10" dy="-5" text-anchor="start" style="fill-opacity: 1;">Бизнес-требования</text></g><g class="markmap-node" transform="translate(216.9541015625,-135)"><rect class="markmap-node-rect" y="-0.75" x="-1" width="78.0771484375" height="1.5" fill="#aec7e8"></rect><circle class="markmap-node-circle" cx="76.0771484375" stroke="#aec7e8" r="4.5"></circle><text class="markmap-node-text" x="10" dy="-5" text-anchor="start" style="fill-opacity: 1;">Верификация</text></g><g class="markmap-node" transform="translate(108.26953125,-95)"><rect class="markmap-node-rect" y="-1" x="-1" width="50.6845703125" height="2" fill="#aec7e8"></rect><circle class="markmap-node-circle" cx="48.6845703125" stroke="#aec7e8" r="4.5"></circle><text class="markmap-node-text" x="10" dy="-5" text-anchor="start" style="fill-opacity: 1;">V-model</text></g><g class="markmap-node" transform="translate(315.9091796875,-177.5)"><rect class="markmap-node-rect" y="-0.75" x="-1" width="66.16796875" height="1.5" fill="#ff7f0e"></rect><circle class="markmap-node-circle" cx="64.16796875" stroke="#ff7f0e" r="4.5" style="display: none;"></circle><text class="markmap-node-text" x="10" dy="-5" text-anchor="start" style="fill-opacity: 1;">Поддержка</text></g><g class="markmap-node" transform="translate(315.9091796875,-192.5)"><rect class="markmap-node-rect" y="-0.75" x="-1" width="78.8291015625" height="1.5" fill="#ff7f0e"></rect><circle class="markmap-node-circle" cx="76.8291015625" stroke="#ff7f0e" r="4.5" style="display: none;"></circle><text class="markmap-node-text" x="10" dy="-5" text-anchor="start" style="fill-opacity: 1;">Тестирование</text></g><g class="markmap-node" transform="translate(315.9091796875,-207.5)"><rect class="markmap-node-rect" y="-0.75" x="-1" width="75.142578125" height="1.5" fill="#ff7f0e"></rect><circle class="markmap-node-circle" cx="73.142578125" stroke="#ff7f0e" r="4.5" style="display: none;"></circle><text class="markmap-node-text" x="10" dy="-5" text-anchor="start" style="fill-opacity: 1;">Кодирование</text></g><g class="markmap-node" transform="translate(315.9091796875,-222.5)"><rect class="markmap-node-rect" y="-0.75" x="-1" width="47.61328125" height="1.5" fill="#ff7f0e"></rect><circle class="markmap-node-circle" cx="45.61328125" stroke="#ff7f0e" r="4.5" style="display: none;"></circle><text class="markmap-node-text" x="10" dy="-5" text-anchor="start" style="fill-opacity: 1;">Дизайн</text></g><g class="markmap-node" transform="translate(315.9091796875,-237.5)"><rect class="markmap-node-rect" y="-0.75" x="-1" width="91.080078125" height="1.5" fill="#ff7f0e"></rect><circle class="markmap-node-circle" cx="89.080078125" stroke="#ff7f0e" r="4.5" style="display: none;"></circle><text class="markmap-node-text" x="10" dy="-5" text-anchor="start" style="fill-opacity: 1;">Проектирование</text></g><g class="markmap-node" transform="translate(108.26953125,-207.5)"><rect class="markmap-node-rect" y="-1" x="-1" width="149.6396484375" height="2" fill="#ff7f0e"></rect><circle class="markmap-node-circle" cx="147.6396484375" stroke="#ff7f0e" r="4.5"></circle><text class="markmap-node-text" x="10" dy="-5" text-anchor="start" style="fill-opacity: 1;">Водопад (Каскадная модель)</text></g><g class="markmap-node" transform="translate(0,0)"><rect class="markmap-node-rect" y="-3" x="-1" width="50.26953125" height="6" fill="#1f77b4"></rect><circle class="markmap-node-circle" cx="48.26953125" stroke="#1f77b4" r="4.5"></circle><text class="markmap-node-text" x="10" dy="-5" text-anchor="start" style="fill-opacity: 1;">Модели</text></g></g>
</svg>